<svg xmlns="http://www.w3.org/2000/svg" viewBox="0 0 24 24" width="30" height="30">
  <path fill="currentColor" d="M22.5 4.91c-.84.37-1.74.62-2.68.74.96-.58 1.7-1.5 2.05-2.6-.9.53-1.9.92-2.97 1.13-.85-.9-2.06-1.47-3.4-1.47-2.57 0-4.66 2.09-4.66 4.66 0 .36.04.72.13 1.06-3.87-.19-7.3-2.04-9.6-4.85-.4.68-.63 1.48-.63 2.33 0 1.6.82 3.02 2.07 3.85-.76-.03-1.48-.23-2.1-.58v.06c0 2.24 1.59 4.1 3.7 4.53-.4.11-.82.17-1.25.17-.3 0-.59-.03-.88-.08.6 1.85 2.33 3.2 4.4 3.24-1.62 1.27-3.66 2.03-5.88 2.03-.38 0-.76-.02-1.14-.07 2.1 1.34 4.59 2.12 7.27 2.12 8.72 0 13.5-7.22 13.5-13.5l-.02-.61c.94-.68 1.76-1.54 2.4-2.52l-.05-.01z"/>
</svg>
